<mxfile host="app.diagrams.net" modified="2024-06-30T05:15:35.839Z" agent="Mozilla/5.0 (Windows NT 10.0; Win64; x64) AppleWebKit/537.36 (KHTML, like Gecko) Chrome/124.0.0.0 Safari/537.36" version="24.6.4" etag="3kuxWseW6ajGleEDzZtN" type="github">
  <diagram name="Page-1" id="qRwWg7Yr85FhQ9sEJRrk">
    <mxGraphModel>
      <root>
        <mxCell id="0" />
        <mxCell id="1" parent="0" />
      </root>
    </mxGraphModel>
  </diagram>
</mxfile>
